# Blender 4.3.2
# www.blender.org
mtllib untitled4.mtl
o Vest24.005
v -1.839264 -3.962719 7.292299
v -1.749866 -1.731110 7.140047
v -1.812577 -1.770851 7.194797
v -1.640741 -1.847313 6.290884
v -1.607443 -1.766258 6.623936
v -1.983921 -1.570900 6.187111
v -2.985836 -1.853451 5.914317
v -3.190758 -1.762699 6.189447
v -2.937238 -1.527855 6.248526
v -2.556098 -1.389641 6.328184
v -2.561447 -1.537819 6.023465
v -1.972440 -1.451096 6.521081
v -2.118244 -1.433304 7.033265
v -3.097779 -1.527344 6.796659
v -3.340335 -1.753426 6.703429
v -2.706028 -1.357452 6.860729
v -2.187655 -1.470776 7.075126
v -2.715822 -1.422356 6.925467
v -2.594303 -4.400883 6.471132
v -2.087798 -4.276012 6.287013
v -2.667229 -4.240707 6.124454
v -2.960950 -4.261795 6.373143
v -3.104827 -4.223614 6.921537
v -3.327396 -3.958855 6.876238
v -3.352111 -3.999149 6.807847
v -3.300903 -1.768871 6.778461
v -3.215451 -4.027981 6.302850
v -3.013978 -3.955372 6.008735
v -2.807280 -4.332840 7.022396
v -1.995296 -4.329048 6.653599
v -2.401177 -4.371323 7.097826
v -2.123943 -4.250645 7.214701
v -1.773651 -3.998623 7.248200
v -1.626911 -4.012157 6.737152
v -1.650731 -3.950024 6.387727
v -3.308803 -2.297123 6.567573
v -3.281311 -2.259552 6.467374
v -3.354338 -2.310665 6.449464
v -3.254187 -2.306591 6.371119
v -3.377248 -2.423229 6.541093
v -3.321445 -2.397667 6.613086
v -3.310882 -2.501141 6.577802
v -3.283552 -2.549042 6.480376
v -3.256059 -2.511471 6.380180
v -3.329670 -2.432281 6.370042
v -3.243340 -2.410942 6.334775
v -3.365673 -2.473072 6.453979
v -3.353401 -2.672024 6.415883
v -3.312386 -2.627544 6.583098
v -3.323991 -2.728065 6.628696
v -3.313267 -2.831478 6.592481
v -3.287041 -2.879543 6.495901
v -3.345913 -2.818546 6.434961
v -3.246743 -2.741310 6.349277
v -3.256572 -2.636951 6.385800
v -3.283695 -2.589813 6.482067
v -3.385052 -2.740086 6.558589
v -3.258348 -2.841824 6.394876
v -3.352862 -3.347321 6.465346
v -3.377332 -3.186066 6.512739
v -3.384037 -3.278301 6.579589
v -3.338038 -3.221329 6.411729
v -3.318349 -3.355614 6.615812
v -3.291227 -3.402660 6.519559
v -3.262711 -3.365093 6.419538
v -3.251076 -3.265587 6.373779
v -3.261657 -3.160984 6.409145
v -3.289048 -3.114109 6.506393
v -3.316542 -3.151672 6.606593
v -3.329169 -3.252193 6.652013
v -3.374104 -3.724358 6.547908
v -3.291546 -3.494389 6.523338
v -3.264424 -3.541424 6.427085
v -3.253667 -3.645855 6.390708
v -3.340053 -3.668106 6.426884
v -3.266292 -3.746391 6.436131
v -3.293962 -3.784119 6.537338
v -3.321087 -3.736973 6.633607
v -3.331841 -3.632629 6.669971
v -3.320220 -3.532089 6.624279
v -3.356644 -3.551212 6.483487
v -3.392833 -3.608231 6.572628
v -3.299342 -1.979168 6.529601
v -3.278018 -1.951504 6.453453
v -3.308903 -2.055435 6.562984
v -3.347009 -2.085121 6.536158
v -3.283877 -2.178852 6.462886
v -3.300912 -2.134117 6.536427
v -3.258708 -2.141193 6.387444
v -3.297231 -2.092976 6.359566
v -3.250076 -2.064938 6.353908
v -3.258065 -1.986248 6.380457
v -3.322028 -1.960793 6.440927
vn 0.6176 -0.6681 0.4149
vn 0.4344 0.1806 0.8824
vn 0.0713 -0.1465 0.9866
vn 0.9296 -0.3052 0.2067
vn 0.8600 0.1988 0.4699
vn 0.9619 0.2428 -0.1254
vn 0.6723 -0.3268 -0.6643
vn 0.7889 0.3414 -0.5110
vn 0.3366 0.9416 -0.0032
vn 0.4114 0.8603 0.3011
vn 0.4275 0.8722 -0.2377
vn -0.4299 0.8632 -0.2648
vn -0.3197 0.0991 -0.9423
vn -0.8823 0.2837 -0.3757
vn -0.0761 0.8982 -0.4330
vn -0.0918 0.9864 -0.1361
vn -0.0286 0.4065 0.9132
vn -0.5840 0.7533 0.3024
vn -0.9994 0.0324 -0.0128
vn -0.6483 0.1029 0.7544
vn -0.1782 0.9810 0.0772
vn -0.3914 0.3303 0.8589
vn -0.1137 -0.9701 -0.2144
vn -0.1761 -0.8153 -0.5516
vn 0.3477 -0.8729 -0.3423
vn -0.4339 -0.8392 -0.3277
vn -0.2373 -0.4095 -0.8809
vn -0.7268 -0.4347 -0.5317
vn -0.7101 -0.6525 0.2646
vn -0.6890 -0.6513 0.3179
vn -0.6903 0.0047 0.7235
vn -0.5549 -0.6567 0.5107
vn 0.0037 -0.9846 0.1748
vn 0.4262 -0.9037 -0.0405
vn -0.0476 -0.6988 0.7137
vn -0.8813 0.4031 -0.2465
vn -0.8168 0.4801 0.3200
vn -0.5267 0.8376 -0.1452
vn -0.4851 0.5282 -0.6969
vn -0.9430 -0.1470 0.2985
vn -0.8345 0.0201 0.5506
vn -0.7697 -0.5819 0.2625
vn -0.8735 -0.3835 -0.2999
vn -0.6299 -0.7366 -0.2464
vn -0.4422 -0.5357 -0.7194
vn -0.5392 -0.2064 -0.8165
vn -0.3289 0.0814 -0.9409
vn -0.8389 0.4978 0.2200
vn -0.9474 -0.1264 0.2941
vn -0.7928 -0.0021 0.6095
vn -0.8108 -0.5585 0.1752
vn -0.6778 -0.7113 -0.1861
vn -0.6559 -0.5341 -0.5334
vn -0.8291 0.3931 -0.3976
vn -0.4497 0.0242 -0.8929
vn -0.3879 0.5848 -0.7125
vn -0.6792 0.7229 -0.1268
vn -0.4216 -0.4758 -0.7719
vn -0.5424 0.2555 -0.8003
vn -0.6767 -0.5437 -0.4964
vn -0.8548 0.4958 -0.1532
vn -0.9280 -0.1985 0.3153
vn -0.7850 -0.5737 0.2338
vn -0.6159 -0.7654 -0.1863
vn -0.4236 -0.4628 -0.7787
vn -0.3846 -0.0118 -0.9230
vn -0.4279 0.6147 -0.6626
vn -0.6186 0.7609 -0.1960
vn -0.7958 0.5011 0.3401
vn -0.8361 0.0186 0.5483
vn -0.6802 0.5486 -0.4862
vn -0.5856 0.8023 -0.1156
vn -0.4342 0.5419 -0.7196
vn -0.5896 -0.0767 -0.8041
vn -0.3322 0.0830 -0.9396
vn -0.4735 -0.5270 -0.7057
vn -0.8594 -0.5020 0.0973
vn -0.5830 -0.7601 -0.2870
vn -0.7960 -0.5134 0.3208
vn -0.8714 -0.0528 0.4877
vn -0.9595 0.1728 0.2225
vn -0.7877 0.5321 0.3103
vn -0.6335 0.5529 -0.5412
vn -0.7866 0.4736 0.3963
vn -0.1891 0.9814 -0.0325
vn -0.9284 -0.3629 0.0794
vn -0.6904 0.0766 0.7193
vn -0.9842 -0.1492 -0.0950
vn -0.6701 -0.6600 0.3396
vn -0.4139 -0.0907 -0.9058
vn -0.3202 -0.6112 -0.7238
vn -0.1109 0.1498 -0.9825
vn -0.4246 0.5438 -0.7239
vn -0.3231 -0.0362 0.9457
vn 0.3105 0.0473 -0.9494
vn 0.3045 0.0485 -0.9513
vn 0.3225 0.0429 -0.9456
vn 0.3122 0.0467 -0.9489
vt 0.992188 0.872070
vt 0.727739 0.860107
vt 0.992188 0.860107
vt 0.992188 0.947021
vt 0.727349 0.872070
vt 0.728371 0.947021
vt 0.992188 0.993580
vt 0.724637 0.993580
vt 0.668163 0.947021
vt 0.668184 0.872070
vt 0.663369 0.993580
vt 0.545898 0.947021
vt 0.505618 0.993580
vt 0.502836 0.947021
vt 0.579586 0.993580
vt 0.595262 0.947021
vt 0.664050 0.860107
vt 0.545898 0.866908
vt 0.500746 0.872070
vt 0.503928 0.860107
vt 0.595231 0.872070
vt 0.594764 0.860107
vt 0.150469 0.947021
vt 0.177347 0.993580
vt 0.094290 0.993580
vt 0.197632 0.947021
vt 0.237249 0.993580
vt 0.238301 0.947021
vt 0.197632 0.867361
vt 0.238548 0.872070
vt 0.238461 0.860107
vt 0.157024 0.866396
vt 0.109529 0.872070
vt 0.076544 0.947021
vt 0.071442 0.865624
vt 0.017670 0.872070
vt 0.016230 0.947021
vt 0.018719 0.860107
vt 0.018417 0.993580
vt 0.409496 0.476864
vt 0.390625 0.520996
vt 0.371826 0.476562
vt 0.390625 0.431641
vt 0.441785 0.504770
vt 0.434570 0.539795
vt 0.479736 0.520996
vt 0.458611 0.476562
vt 0.498779 0.476562
vt 0.479736 0.431641
vt 0.442014 0.448133
vt 0.434570 0.413086
vt 0.279297 0.591309
vt 0.326049 0.571853
vt 0.322266 0.610107
vt 0.367920 0.591309
vt 0.386719 0.546875
vt 0.349058 0.534687
vt 0.305302 0.533877
vt 0.323486 0.483887
vt 0.279297 0.502686
vt 0.260498 0.546875
vt 0.367920 0.502686
vt 0.059818 0.553707
vt 0.099209 0.569723
vt 0.050254 0.586901
vt 0.079617 0.607462
vt 0.116882 0.623779
vt 0.135620 0.579346
vt 0.116882 0.535156
vt 0.072510 0.516357
vt 0.028152 0.535156
vt 0.009491 0.579346
vt 0.028152 0.623779
vt 0.072449 0.642578
vt 0.162444 0.518470
vt 0.127808 0.525391
vt 0.146362 0.480957
vt 0.198155 0.497597
vt 0.190552 0.462402
vt 0.235107 0.480957
vt 0.217125 0.535937
vt 0.253906 0.525391
vt 0.235107 0.569824
vt 0.190552 0.588623
vt 0.182886 0.547131
vt 0.146362 0.569824
vt 0.033558 0.461303
vt 0.026382 0.493652
vt 0.012863 0.460938
vt 0.067376 0.488760
vt 0.058990 0.507324
vt 0.104976 0.460938
vt 0.091614 0.493652
vt 0.067247 0.433252
vt 0.091614 0.428711
vt 0.058990 0.415039
vt 0.026382 0.428711
vt 0.739397 0.310174
vt 0.726074 0.111328
vt 0.751528 0.190691
vt 0.675112 0.059319
vt 0.676931 0.393022
vt 0.197606 0.393324
vt 0.195960 0.059992
vt 0.132916 0.309023
vt 0.146729 0.110352
vt 0.121074 0.190104
vt 1.676453 0.393262
vt 1.132350 0.307934
vt 1.192913 0.390843
vt 1.743340 0.287151
vt 1.129358 0.165432
vt 1.739845 0.144246
vt 1.193438 0.061311
vt 1.676987 0.060354
s 1
usemtl wrist_gps_col
f 33/1/1 3/2/2 1/3/3
f 34/4/4 2/5/5 33/1/1
f 2/5/5 3/2/2 33/1/1
f 5/6/6 2/5/5 34/4/4
f 5/6/6 34/4/4 35/7/7
f 5/6/6 35/7/7 4/8/8
f 5/6/6 4/8/8 12/9/9
f 2/5/5 5/6/6 12/9/9
f 2/5/5 12/9/9 13/10/10
f 12/9/9 4/8/8 6/11/11
f 9/12/12 7/13/13 8/14/14
f 9/12/12 11/15/15 7/13/13
f 10/16/16 11/15/15 9/12/12
f 10/16/16 6/11/11 11/15/15
f 10/16/16 12/9/9 6/11/11
f 13/10/10 17/17/17 3/2/2
f 2/5/5 13/10/10 3/2/2
f 14/18/18 15/19/19 26/20/20
f 14/18/18 8/14/14 15/19/19
f 14/18/18 9/12/12 8/14/14
f 16/21/21 9/12/12 14/18/18
f 16/21/21 10/16/16 9/12/12
f 16/21/21 12/9/9 10/16/16
f 13/10/10 12/9/9 16/21/21
f 13/10/10 16/21/21 17/17/17
f 16/21/21 18/22/22 17/17/17
f 16/21/21 14/18/18 18/22/22
f 19/23/23 21/24/24 20/25/25
f 19/23/23 22/26/26 21/24/24
f 22/26/26 28/27/27 21/24/24
f 27/28/28 28/27/27 22/26/26
f 23/29/29 27/28/28 22/26/26
f 25/30/30 27/28/28 23/29/29
f 25/30/30 23/29/29 24/31/31
f 15/19/19 25/30/30 24/31/31
f 15/19/19 24/31/31 26/20/20
f 23/29/29 22/26/26 19/23/23
f 8/14/14 27/28/28 15/19/19
f 15/19/19 27/28/28 25/30/30
f 8/14/14 28/27/27 27/28/28
f 8/14/14 7/13/13 28/27/27
f 23/29/29 19/23/23 29/32/32
f 29/32/32 19/23/23 31/33/33
f 31/33/33 19/23/23 30/34/34
f 31/33/33 30/34/34 32/35/35
f 30/34/34 33/36/1 32/35/35
f 30/34/34 34/37/4 33/36/1
f 31/33/33 32/35/35 29/32/32
f 32/35/35 33/36/1 1/38/3
f 30/34/34 35/39/7 34/37/4
f 30/34/34 20/25/25 35/39/7
f 19/23/23 20/25/25 30/34/34
f 38/40/36 36/41/37 37/42/38
f 38/40/36 37/42/38 39/43/39
f 38/40/36 40/44/40 36/41/37
f 36/41/37 40/44/40 41/45/41
f 41/45/41 40/44/40 42/46/42
f 40/44/40 47/47/43 42/46/42
f 42/46/42 47/47/43 43/48/44
f 43/48/44 47/47/43 44/49/45
f 44/49/45 47/47/43 45/50/46
f 45/50/46 46/51/47 44/49/45
f 45/50/46 39/43/39 46/51/47
f 45/50/46 38/40/36 39/43/39
f 47/47/43 38/40/36 45/50/46
f 40/44/40 38/40/36 47/47/43
f 49/52/48 57/53/49 50/54/50
f 50/54/50 57/53/49 51/55/51
f 51/55/51 57/53/49 52/56/52
f 57/53/49 53/57/53 52/56/52
f 53/57/53 48/58/54 54/59/55
f 54/59/55 48/58/54 55/60/56
f 55/60/56 48/58/54 56/61/57
f 56/61/57 48/58/54 49/52/48
f 49/52/48 48/58/54 57/53/49
f 57/53/49 48/58/54 53/57/53
f 52/56/52 53/57/53 58/62/58
f 53/57/53 54/59/55 58/62/58
f 62/63/59 59/64/60 60/65/61
f 60/65/61 59/64/60 61/66/62
f 61/66/62 59/64/60 63/67/63
f 63/67/63 59/64/60 64/68/64
f 64/68/64 59/64/60 65/69/65
f 59/64/60 66/70/66 65/69/65
f 62/63/59 66/70/66 59/64/60
f 62/63/59 67/71/67 66/70/66
f 68/72/68 67/71/67 62/63/59
f 68/72/68 62/63/59 60/65/61
f 60/65/61 61/66/62 69/73/69
f 69/73/69 61/66/62 70/74/70
f 70/74/70 61/66/62 63/67/63
f 68/72/68 60/65/61 69/73/69
f 81/75/71 72/76/72 73/77/73
f 75/78/74 81/75/71 73/77/73
f 74/79/75 75/78/74 73/77/73
f 76/80/76 75/78/74 74/79/75
f 71/81/77 75/78/74 76/80/76
f 77/82/78 71/81/77 76/80/76
f 78/83/79 71/81/77 77/82/78
f 71/81/77 78/83/79 79/84/80
f 82/85/81 71/81/77 79/84/80
f 82/85/81 79/84/80 80/86/82
f 81/75/71 82/85/81 80/86/82
f 71/81/77 82/85/81 75/78/74
f 82/85/81 81/75/71 75/78/74
f 81/75/71 80/86/82 72/76/72
f 93/87/83 83/88/84 84/89/85
f 83/88/84 86/90/86 85/91/87
f 93/87/83 86/90/86 83/88/84
f 87/92/88 86/90/86 93/87/83
f 86/90/86 87/92/88 88/93/89
f 87/92/88 90/94/90 89/95/91
f 90/94/90 91/96/92 89/95/91
f 90/94/90 92/97/93 91/96/92
f 90/94/90 93/87/83 92/97/93
f 93/87/83 84/89/85 92/97/93
f 87/92/88 93/87/83 90/94/90
f 86/90/86 88/93/89 85/91/87
f 32/98/35 23/99/29 29/100/32
f 32/98/35 24/101/31 23/99/29
f 1/102/3 24/101/31 32/98/35
f 3/103/94 24/101/31 1/102/3
f 3/103/94 26/104/20 24/101/31
f 17/105/17 26/104/20 3/103/94
f 17/105/17 14/106/18 26/104/20
f 17/105/17 18/107/22 14/106/18
f 35/108/7 6/109/95 4/110/8
f 20/111/96 6/109/95 35/108/7
f 20/111/96 11/112/97 6/109/95
f 21/113/98 11/112/97 20/111/96
f 21/113/98 7/114/13 11/112/97
f 28/115/27 7/114/13 21/113/98
