# Blender 4.3.2
# www.blender.org
mtllib untitled7.mtl
o Vest24.002
v -0.356231 -5.933403 8.069678
v 1.212977 -5.889954 8.035159
v -3.449139 -9.526871 8.949286
v -4.167844 -10.031425 8.626285
v -2.109691 -11.743896 8.659963
v -4.295288 -7.123741 8.463865
v -4.457151 -6.872486 8.564734
v -4.671036 -7.311722 8.539937
v -4.589910 -7.732338 8.631441
v -3.032219 -8.173637 8.990101
v -2.087501 -9.230877 9.010821
v -4.765724 -8.040295 7.400229
v -4.634375 -7.178268 7.549294
v -1.454147 -9.696465 9.104613
v -4.495648 -6.770493 7.434884
v -4.553290 -8.636509 6.099742
v -4.369106 -6.523571 6.128749
v -4.777589 -9.966515 8.033198
v -4.721366 -9.834709 7.380063
v -3.719913 -10.771255 6.004349
v -4.128666 -6.548473 5.976789
v -3.728981 -12.138962 7.343204
v -4.430368 -11.633949 8.041085
v -3.850715 -12.182304 8.294895
v -2.176503 -12.362209 7.890838
v -0.907816 -12.022873 8.428289
v 0.266469 -12.247276 8.031185
v 1.576371 -11.981571 8.604145
v 2.589716 -12.015682 7.678837
v 2.407980 -11.824635 6.874632
v -1.596103 -12.041149 6.740408
v -3.469521 -11.892231 6.293436
v -0.976392 -11.629520 6.390065
v 3.556472 -11.377121 6.444150
v 3.365225 -11.599300 7.971808
v 3.226070 -11.863586 8.800139
v 3.709620 -11.307571 8.659118
v 3.759626 -10.224407 8.721261
v 3.789560 -11.013046 7.565814
v 3.885857 -10.960682 6.457585
v 3.520059 -7.966511 6.493690
v 3.838532 -7.939213 6.817371
v 3.563679 -6.546841 6.901353
v 3.842595 -7.862621 7.880241
v 3.625024 -6.705894 8.018402
v 3.439913 -6.954445 9.210118
v 3.253528 -6.400944 9.062870
v 3.211735 -6.295856 6.578593
v 3.039429 -6.149639 7.753364
v 3.186022 -5.989944 6.785826
v 3.487650 -8.800850 8.248390
v 3.616619 -10.225483 8.082577
v 3.511026 -8.601898 8.920941
v 2.936007 -8.275036 9.240112
v 1.363651 -6.464909 9.151769
v 0.775712 -6.884010 9.323822
v 0.404636 -8.188538 9.340220
v 0.695277 -11.479912 8.757587
v -0.900594 -6.701508 8.970311
v -0.311081 -6.438808 8.272083
v -2.333329 -6.462048 8.145495
v -4.044165 -6.319958 7.538614
v -2.893599 -6.784805 8.737218
v -0.998754 -8.016880 9.305664
v 2.439405 -6.013008 8.013412
v 2.152504 -6.179222 8.489478
v 0.006200 -6.353802 7.828223
v -2.592583 -6.319466 7.600003
v 0.969732 -6.065567 7.499784
v 2.334481 -5.951939 6.854792
v 1.395292 -6.213001 6.525321
v -0.722278 -6.470467 6.433496
v -2.440010 -6.166492 7.289053
v 0.264145 -5.837124 7.743149
v -1.495188 -6.344765 6.590813
v 1.124426 -6.102852 6.854836
v -3.984001 -6.298580 6.253932
v -3.797830 -6.213829 7.417177
v -4.226549 -6.439934 7.443481
v -4.515131 -11.222160 6.795593
v -4.121274 -11.632122 5.879329
v -4.442550 -10.881897 5.945983
v -4.274954 -11.284401 7.683905
v -0.058652 -8.429409 6.270967
v -2.405165 -8.574127 5.987596
v 2.405205 -10.768208 6.209260
v -0.982422 -10.871544 6.190105
vn -0.3194 -0.2812 0.9049
vn -0.5629 -0.3684 0.7398
vn -0.1028 -0.6247 0.7741
vn 0.0265 -0.2515 0.9675
vn -0.3466 0.5019 0.7924
vn -0.8265 0.2182 0.5189
vn -0.7609 -0.0596 0.6461
vn -0.1581 -0.0220 0.9872
vn -0.1789 -0.2554 0.9501
vn -0.9835 0.1717 -0.0569
vn -0.9812 0.1753 -0.0805
vn -0.0352 0.5300 0.8473
vn -0.1080 -0.3623 0.9258
vn 0.0913 -0.4890 0.8675
vn -0.2208 0.9661 -0.1336
vn -0.8508 0.5225 0.0559
vn -0.6309 0.0827 -0.7714
vn -0.6311 0.5910 -0.5024
vn -0.6335 -0.5988 0.4901
vn -0.0134 -0.8835 0.4683
vn -0.9737 -0.1884 0.1279
vn -0.9789 -0.0802 -0.1877
vn -0.1271 0.5931 -0.7950
vn 0.2448 0.1197 -0.9621
vn -0.9027 -0.4263 -0.0581
vn -0.4218 -0.8434 -0.3328
vn -0.1751 -0.9791 0.1036
vn 0.1846 -0.9808 0.0627
vn -0.0554 -0.9030 0.4261
vn 0.2848 -0.9268 -0.2447
vn 0.2145 -0.8615 -0.4601
vn 0.0729 -0.8454 -0.5292
vn -0.1513 -0.8614 -0.4849
vn -0.3574 -0.4594 -0.8132
vn 0.1683 -0.5015 -0.8486
vn 0.5505 -0.5659 -0.6138
vn 0.7525 -0.6463 -0.1262
vn 0.4528 -0.8084 0.3761
vn 0.9108 -0.1788 0.3720
vn 0.1756 -0.2728 0.9459
vn 0.8618 -0.1070 0.4959
vn 0.9166 -0.3478 0.1972
vn 0.8596 -0.1490 -0.4888
vn 0.9633 0.1597 -0.2157
vn 0.2727 0.2756 -0.9218
vn 0.9134 0.3985 -0.0832
vn 0.9760 -0.0118 0.2176
vn 0.8815 0.4169 0.2217
vn 0.6474 0.0068 0.7622
vn 0.4132 0.6045 0.6811
vn 0.1337 0.4050 -0.9045
vn 0.4319 0.8531 0.2927
vn 0.4572 0.8783 -0.1398
vn 0.9381 -0.1249 0.3230
vn 0.9728 -0.1155 0.2006
vn 0.8132 0.0622 0.5786
vn -0.1043 0.6660 0.7386
vn -0.0530 0.1235 0.9909
vn -0.2109 -0.1458 0.9666
vn -0.0356 0.7465 0.6645
vn -0.1659 0.7099 0.6845
vn -0.1578 0.7951 0.5856
vn -0.0888 0.9911 -0.0990
vn -0.7138 0.6536 0.2516
vn 0.0948 0.8584 -0.5042
vn -0.2971 -0.0712 0.9522
vn 0.0645 0.8885 0.4544
vn 0.2542 0.8966 0.3627
vn -0.0322 0.9982 -0.0505
vn 0.0836 0.6991 -0.7101
vn -0.1784 0.9166 -0.3578
vn 0.0241 0.9979 -0.0609
vn 0.0336 0.9923 -0.1193
vn -0.0672 0.7380 -0.6714
vn -0.1894 0.5240 -0.8304
vn 0.0825 0.9161 -0.3923
vn 0.0282 0.9990 -0.0340
vn -0.3566 0.8543 0.3783
vn 0.0329 0.9860 -0.1637
vn -0.1433 0.9751 -0.1693
vn -0.9486 -0.3065 0.0789
vn -0.5974 0.0815 -0.7978
vn -0.9342 -0.2208 -0.2803
vn -0.1837 0.0842 0.9794
vn -0.1832 0.0858 0.9793
vn -0.1931 0.0780 0.9781
vn -0.1922 0.2327 0.9534
vn 0.2737 0.0852 -0.9580
vn 0.2669 0.0922 -0.9593
vn 0.1862 -0.0388 -0.9817
vn 0.0201 0.0405 -0.9990
vt 0.660644 0.482178
vt 0.670688 0.489014
vt 0.645705 0.513330
vt 0.670898 0.449219
vt 0.673299 0.445722
vt 0.676548 0.452218
vt 0.673060 0.462634
vt 0.653809 0.465088
vt 0.645028 0.479705
vt 0.694445 0.465583
vt 0.693424 0.453214
vt 0.651362 0.446804
vt 0.634277 0.487060
vt 0.607358 0.513544
vt 0.664729 0.427664
vt 0.696019 0.447040
vt 0.715008 0.476240
vt 0.717747 0.448517
vt 0.670508 0.518440
vt 0.630126 0.521297
vt 0.681641 0.488037
vt 0.691894 0.488037
vt 0.722658 0.449304
vt 0.723462 0.507324
vt 0.677637 0.510060
vt 0.687988 0.522461
vt 0.648926 0.528320
vt 0.615208 0.531148
vt 0.595703 0.522461
vt 0.583496 0.539063
vt 0.587162 0.552166
vt 0.642178 0.548708
vt 0.670410 0.534668
vt 0.667969 0.552734
vt 0.667969 0.558106
vt 0.634024 0.556832
vt 0.571941 0.561996
vt 0.571289 0.536133
vt 0.572997 0.521916
vt 0.566569 0.515191
vt 0.557065 0.522435
vt 0.573731 0.473589
vt 0.563965 0.500977
vt 0.529785 0.522949
vt 0.547363 0.514160
vt 0.530365 0.516020
vt 0.528894 0.476002
vt 0.522289 0.476867
vt 0.528809 0.457275
vt 0.546401 0.472185
vt 0.546875 0.456055
vt 0.566406 0.457501
vt 0.566362 0.449069
vt 0.521446 0.453930
vt 0.541748 0.446562
vt 0.525391 0.448975
vt 0.554688 0.483643
vt 0.554199 0.502930
vt 0.564385 0.479023
vt 0.592285 0.448730
vt 0.601136 0.454419
vt 0.605251 0.470282
vt 0.623549 0.448827
vt 0.615723 0.437744
vt 0.643398 0.435735
vt 0.616367 0.431238
vt 0.668758 0.424255
vt 0.646138 0.424805
vt 0.625977 0.465820
vt 0.674352 0.425102
vt 0.581677 0.438335
vt 0.577637 0.428713
vt 0.594727 0.430664
vt 0.611314 0.425254
vt 0.597518 0.415814
vt 0.594731 0.405713
vt 0.568632 0.425049
vt 0.578125 0.408935
vt 0.590820 0.401367
vt 0.621214 0.398551
vt 0.566406 0.408691
vt 0.568381 0.403712
vt 0.607096 0.421112
vt 0.644268 0.414195
vt 0.662364 0.422377
vt 0.632020 0.402441
vt 0.666992 0.403809
vt 0.672852 0.403076
vt 0.669922 0.398926
vt 0.698538 0.507517
vt 0.712812 0.514056
vt 0.708008 0.523926
vt 0.712402 0.505371
vt 0.685059 0.507324
vt 0.506751 0.371940
vt 0.535644 0.371338
vt 0.513585 0.399100
vt 0.481445 0.398926
vt 0.459961 0.370690
vt 0.463269 0.426166
vt 0.498808 0.430741
vt 0.544796 0.432365
vt 0.464355 0.439209
vt 0.498300 0.440334
vt 0.559895 0.441406
vt 0.558594 0.431641
vt 0.562500 0.396335
vt 0.558953 0.374798
s 1
usemtl vest_gear_b_col
f 3/1/1 4/2/2 5/3/3
f 6/4/4 7/5/5 8/6/6
f 9/7/7 6/4/4 8/6/6
f 3/1/1 9/7/7 4/2/2
f 3/1/1 10/8/8 9/7/7
f 3/1/1 11/9/9 10/8/8
f 3/1/1 5/3/3 11/9/9
f 10/8/8 6/4/4 9/7/7
f 12/10/10 9/7/7 13/11/11
f 8/6/6 13/11/11 9/7/7
f 7/5/5 6/4/4 63/12/12
f 10/8/8 63/12/12 6/4/4
f 10/8/8 11/9/9 63/12/12
f 14/13/13 11/9/9 5/3/3
f 5/3/3 58/14/14 14/13/13
f 7/5/5 63/12/12 62/15/15
f 7/5/5 15/16/16 8/6/6
f 13/11/11 8/6/6 15/16/16
f 16/17/17 12/10/10 17/18/18
f 13/11/11 17/18/18 12/10/10
f 5/3/3 24/19/19 26/20/20
f 4/2/2 24/19/19 5/3/3
f 4/2/2 9/7/7 18/21/21
f 12/10/10 18/21/21 9/7/7
f 19/22/22 18/21/21 12/10/10
f 19/22/22 12/10/10 16/17/17
f 16/17/17 21/23/23 20/24/24
f 16/17/17 17/18/18 21/23/23
f 13/11/11 15/16/16 17/18/18
f 23/25/25 22/26/26 24/19/19
f 4/2/2 18/21/21 23/25/25
f 24/19/19 4/2/2 23/25/25
f 26/20/20 24/19/19 25/27/27
f 27/28/28 26/20/20 25/27/27
f 26/20/20 27/28/28 28/29/29
f 27/28/28 29/30/30 28/29/29
f 27/28/28 30/31/31 29/30/30
f 30/31/31 27/28/28 31/32/32
f 25/27/27 31/32/32 27/28/28
f 22/33/26 25/27/27 24/19/19
f 25/27/27 22/33/26 31/32/32
f 32/34/33 31/32/32 22/33/26
f 32/34/33 81/35/34 31/32/32
f 33/36/35 31/32/32 81/35/34
f 31/32/32 33/36/35 30/31/31
f 34/37/36 30/31/31 33/36/35
f 34/37/36 35/38/37 30/31/31
f 29/30/30 30/31/31 35/38/37
f 29/30/30 35/38/37 36/39/38
f 29/30/30 36/39/38 28/29/29
f 37/40/39 36/39/38 35/41/37
f 54/42/40 36/39/38 38/43/41
f 36/39/38 37/40/39 38/43/41
f 37/40/39 35/41/37 38/43/41
f 35/41/37 34/44/36 39/45/42
f 40/46/43 39/45/42 34/44/36
f 42/47/44 40/46/43 41/48/45
f 42/47/44 41/48/45 43/49/46
f 42/47/44 43/49/46 44/50/47
f 45/51/48 44/50/47 43/49/46
f 45/51/48 46/52/49 44/50/47
f 45/51/48 47/53/50 46/52/49
f 42/47/44 44/50/47 40/46/43
f 39/45/42 40/46/43 44/50/47
f 48/54/51 43/49/46 41/48/45
f 49/55/52 47/53/50 45/51/48
f 45/51/48 43/49/46 49/55/52
f 49/55/52 43/49/46 50/56/53
f 43/49/46 48/54/51 50/56/53
f 51/57/54 38/43/41 52/58/55
f 53/59/56 38/43/41 51/57/54
f 54/42/40 38/43/41 53/59/56
f 53/59/56 46/52/49 54/42/40
f 53/59/56 44/50/47 46/52/49
f 44/50/47 53/59/56 51/57/54
f 51/57/54 52/58/55 44/50/47
f 44/50/47 52/58/55 39/45/42
f 52/58/55 35/41/37 39/45/42
f 52/58/55 38/43/41 35/41/37
f 47/53/50 55/60/57 46/52/49
f 56/61/58 46/52/49 55/60/57
f 46/52/49 56/61/58 54/42/40
f 57/62/59 54/42/40 56/61/58
f 57/62/59 36/39/38 54/42/40
f 58/14/14 36/39/38 57/62/59
f 58/14/14 28/29/29 36/39/38
f 26/20/20 28/29/29 58/14/14
f 5/3/3 26/20/20 58/14/14
f 57/62/59 14/13/13 58/14/14
f 59/63/60 56/61/58 55/60/57
f 59/63/60 55/60/57 60/64/61
f 60/64/61 61/65/62 59/63/60
f 61/65/62 60/64/61 1/66/63
f 62/15/15 61/65/62 1/66/63
f 79/67/64 62/15/15 68/68/65
f 56/61/58 63/12/12 64/69/66
f 63/12/12 56/61/58 59/63/60
f 64/69/66 57/62/59 56/61/58
f 64/69/66 14/13/13 57/62/59
f 64/69/66 11/9/9 14/13/13
f 11/9/9 64/69/66 63/12/12
f 59/63/60 61/65/62 63/12/12
f 61/65/62 62/15/15 63/12/12
f 79/67/64 15/70/16 62/15/15
f 7/5/5 62/15/15 15/70/16
f 66/71/67 65/72/68 2/73/69
f 65/72/68 67/74/70 2/73/69
f 1/66/63 2/73/69 67/74/70
f 67/74/70 68/68/65 1/66/63
f 1/66/63 68/68/65 62/15/15
f 69/75/71 65/72/68 76/76/72
f 66/71/67 49/77/52 65/72/68
f 49/77/52 66/71/67 47/53/50
f 55/60/57 47/53/50 66/71/67
f 66/71/67 60/64/61 55/60/57
f 66/71/67 2/73/69 60/64/61
f 1/66/63 60/64/61 2/73/69
f 65/72/68 49/77/52 70/78/73
f 70/78/73 76/76/72 65/72/68
f 76/76/72 70/78/73 71/79/74
f 71/79/74 72/80/75 76/76/72
f 50/81/53 70/78/73 49/77/52
f 70/78/73 50/81/53 48/82/51
f 48/82/51 71/79/74 70/78/73
f 74/83/76 73/84/77 78/85/78
f 73/84/77 74/83/76 69/75/71
f 74/83/76 65/72/68 69/75/71
f 73/84/77 69/75/71 75/86/79
f 76/76/72 75/86/79 69/75/71
f 75/86/79 77/87/80 73/84/77
f 78/85/78 73/84/77 77/87/80
f 79/67/64 17/88/18 15/70/16
f 78/85/78 17/88/18 79/67/64
f 78/85/78 77/87/80 17/88/18
f 77/87/80 21/89/23 17/88/18
f 77/87/80 75/86/79 21/89/23
f 72/80/75 21/89/23 75/86/79
f 76/76/72 72/80/75 75/86/79
f 80/90/81 81/91/34 32/92/33
f 80/90/81 82/93/82 81/91/34
f 82/93/82 20/24/24 81/91/34
f 82/93/82 16/17/17 20/24/24
f 82/93/82 19/22/22 16/17/17
f 80/90/81 19/22/22 82/93/82
f 80/90/81 32/92/33 22/26/26
f 22/26/26 83/94/83 80/90/81
f 83/94/83 22/26/26 23/25/25
f 83/94/83 23/25/25 18/21/21
f 19/22/22 83/94/83 18/21/21
f 80/90/81 83/94/83 19/22/22
f 74/83/84 67/74/85 65/72/86
f 67/74/85 74/83/84 68/68/87
f 78/85/78 68/68/87 74/83/84
f 79/67/64 68/68/87 78/85/78
f 72/95/75 71/96/74 84/97/88
f 85/98/89 72/95/75 84/97/88
f 85/98/89 21/99/23 72/95/75
f 20/100/24 21/99/23 85/98/89
f 87/101/90 84/97/88 86/102/91
f 84/97/88 87/101/90 85/98/89
f 85/98/89 87/101/90 20/100/24
f 81/103/34 20/100/24 33/104/35
f 87/101/90 33/104/35 20/100/24
f 33/104/35 87/101/90 34/105/36
f 86/102/91 34/105/36 87/101/90
f 40/106/43 34/105/36 86/102/91
f 40/106/43 86/102/91 41/107/45
f 41/107/45 86/102/91 84/97/88
f 41/107/45 84/97/88 48/108/51
f 71/96/74 48/108/51 84/97/88
